<svg width="700" height="85" viewBox="0 0 700 85" fill="none" xmlns="http://www.w3.org/2000/svg">
<path d="M35.6503 84.104C33.7943 84.488 30.8183 84.744 26.7223 84.872C22.6263 85 19.4263 84.936 17.1223 84.68C14.7543 84.36 13.5063 82.92 13.3783 80.36C13.1223 75.304 13.0903 70.952 13.2823 67.304C13.3463 65.896 13.9543 64.936 15.1063 64.424C16.2583 63.848 17.3463 63.88 18.3703 64.52C19.4583 65.16 20.0023 66.184 20.0023 67.592C19.8743 71.176 19.9703 74.728 20.2903 78.248C21.5703 78.376 23.8103 78.408 27.0103 78.344C30.2743 78.344 32.7703 78.248 34.4983 78.056C36.4823 77.864 37.6983 78.696 38.1463 80.552C38.5943 82.472 37.7623 83.656 35.6503 84.104ZM47.6503 48.584C37.3463 48.904 31.6503 49.128 30.5623 49.256C30.3063 51.24 30.0823 55.016 29.8903 60.584C29.8263 61.992 29.2183 63.016 28.0663 63.656C26.9143 64.232 25.7623 64.264 24.6103 63.752C23.5223 63.176 22.9783 62.12 22.9783 60.584C22.9783 56.104 23.1063 52.456 23.3623 49.64C15.9383 50.344 9.69825 51.016 4.64225 51.656C3.17025 51.848 2.05025 51.464 1.28225 50.504C0.57825 49.48 0.48225 48.392 0.99425 47.24C1.50625 46.088 2.49825 45.384 3.97025 45.128C9.02625 44.296 16.3863 43.592 26.0503 43.016C35.7783 42.376 42.9463 42.216 47.5543 42.536C48.8983 42.6 49.8263 43.144 50.3383 44.168C50.8503 45.128 50.8503 46.12 50.3383 47.144C49.8263 48.104 48.9303 48.584 47.6503 48.584ZM27.6823 14.408C28.3863 14.408 29.1223 14.472 29.8903 14.6C31.8103 14.984 32.7063 15.976 32.5783 17.576C32.5143 19.176 31.6823 20.2 30.0823 20.648C29.3783 20.84 28.8663 21.16 28.5463 21.608C28.2263 22.056 28.1943 22.568 28.4503 23.144C28.7063 23.72 29.2823 24.232 30.1783 24.68C31.4583 25.256 32.4183 26.28 33.0583 27.752C33.6983 29.16 33.6983 30.76 33.0583 32.552C32.5463 34.024 31.4583 35.176 29.7943 36.008C28.1943 36.776 26.3703 36.936 24.3223 36.488C22.3383 36.04 20.9623 35.144 20.1943 33.8C19.4903 32.392 19.2343 30.888 19.4263 29.288C19.4903 28.648 20.0023 27.496 20.9623 25.832C21.9863 24.168 22.2423 22.952 21.7303 22.184C21.2183 21.352 19.0743 21.128 15.2983 21.512C13.8263 21.64 12.7383 21.224 12.0343 20.264C11.3943 19.304 11.2983 18.28 11.7463 17.192C12.2583 16.04 13.1543 15.368 14.4343 15.176C16.1623 14.856 18.5303 14.6 21.5383 14.408C21.4743 14.344 21.4423 14.248 21.4423 14.12C21.4423 13.992 21.4103 13.896 21.3463 13.832C20.0023 9.16 20.1943 5.224 21.9223 2.024C22.3703 1.192 23.1383 0.679996 24.2263 0.487995C25.3783 0.231995 26.3383 0.487995 27.1063 1.256C27.9383 1.96 28.1943 3.016 27.8743 4.424C27.1063 7.624 27.0423 10.408 27.6823 12.776C27.8743 13.352 27.8743 13.896 27.6823 14.408ZM78.6695 38.024C78.0935 38.152 77.0055 38.184 75.4055 38.12C73.8055 38.056 72.6535 38.056 71.9495 38.12C71.5015 38.184 70.1255 38.44 67.8215 38.888C65.5815 39.336 64.0135 39.496 63.1175 39.368C61.8375 39.176 60.9735 38.568 60.5255 37.544C60.0775 36.52 60.1095 35.464 60.6215 34.376C61.1335 33.288 62.0295 32.584 63.3095 32.264C65.2295 31.752 67.8535 31.464 71.1815 31.4C74.5095 31.336 76.9415 31.496 78.4775 31.88C80.5895 32.328 81.5815 33.384 81.4535 35.048C81.3895 36.648 80.4615 37.64 78.6695 38.024ZM80.8775 57.8C75.1815 59.528 70.4775 60.072 66.7655 59.432C63.5655 58.92 61.7415 57.48 61.2935 55.112C60.9735 53.448 61.0055 51.4 61.3895 48.968C61.7735 46.536 62.2535 44.712 62.8295 43.496C63.4055 42.28 64.2055 41.544 65.2295 41.288C66.3175 40.968 67.2455 41.16 68.0135 41.864C68.7815 42.504 69.0695 43.4 68.8775 44.552C68.6215 46.6 68.3975 48.328 68.2055 49.736C68.0775 50.952 68.3655 51.816 69.0695 52.328C69.8375 52.84 71.2135 52.968 73.1975 52.712C73.2615 52.712 74.0935 52.584 75.6935 52.328C77.2935 52.008 78.5735 51.784 79.5335 51.656C81.1975 51.464 82.4455 51.784 83.2775 52.616C84.1735 53.384 84.3975 54.312 83.9495 55.4C83.5015 56.488 82.4775 57.288 80.8775 57.8ZM110.926 29.672C109.646 45.16 109.038 55.528 109.102 60.776C109.102 62.248 108.494 63.336 107.278 64.04C106.126 64.744 104.942 64.808 103.726 64.232C102.51 63.656 101.902 62.504 101.902 60.776C101.902 57.32 102.094 52.712 102.478 46.952C98.5095 46.952 94.7975 47.08 91.3415 47.336C90.0615 47.4 89.1015 47.016 88.4615 46.184C87.8215 45.352 87.6935 44.456 88.0775 43.496C88.4615 42.472 89.3255 41.832 90.6695 41.576C91.6935 41.384 95.7895 41 102.958 40.424C102.958 40.232 103.118 38.568 103.438 35.432C103.822 32.232 104.142 30.12 104.398 29.096C104.718 27.624 105.422 26.696 106.51 26.312C107.662 25.928 108.686 26.088 109.582 26.792C110.542 27.432 110.99 28.392 110.926 29.672ZM124.942 29C124.174 37 124.11 47.912 124.75 61.736C124.814 63.144 124.302 64.2 123.214 64.904C122.126 65.608 120.974 65.768 119.758 65.384C118.606 64.936 117.966 63.976 117.838 62.504C117.39 57.832 117.198 51.848 117.262 44.552C117.39 37.192 117.71 31.816 118.222 28.424C118.478 26.888 119.182 25.896 120.334 25.448C121.486 24.936 122.574 25.064 123.598 25.832C124.622 26.536 125.07 27.592 124.942 29ZM173.008 44.264L170.704 44.84C169.232 45.224 168.112 45.512 167.344 45.704C166.576 45.896 165.424 46.152 163.888 46.472C162.352 46.728 161.104 46.888 160.144 46.952C159.248 46.952 158.32 46.856 157.359 46.664C156.4 46.472 155.728 46.152 155.344 45.704C154.192 44.296 153.168 42.248 152.272 39.56C151.44 36.808 151.344 34.824 151.984 33.608C152.688 32.2 154.192 30.792 156.496 29.384C158.8 27.912 160.08 27.08 160.336 26.888C160.912 26.312 161.296 25.704 161.488 25.064C161.744 24.36 161.68 23.688 161.296 23.048C160.912 22.344 160.144 21.832 158.992 21.512C155.216 20.552 152.88 19.88 151.984 19.496C150 18.728 149.2 17.48 149.584 15.752C150.032 13.96 151.28 13.128 153.328 13.256C155.504 13.384 158 14.024 160.816 15.176C163.632 16.264 166 17.448 167.92 18.728C168.944 19.432 169.456 20.936 169.456 23.24C169.52 25.48 169.04 27.208 168.016 28.424C167.696 28.744 166.192 29.64 163.504 31.112C160.816 32.584 159.312 33.96 158.992 35.24C158.736 36.264 158.832 37.352 159.28 38.504C159.792 39.592 160.592 40.072 161.68 39.944C162.768 39.816 164.688 39.496 167.44 38.984C170.256 38.472 171.76 38.216 171.952 38.216C172.784 38.088 173.488 38.28 174.064 38.792C174.704 39.304 175.088 39.944 175.216 40.712C175.344 41.416 175.216 42.152 174.832 42.92C174.448 43.624 173.84 44.072 173.008 44.264ZM180.496 63.464C170.256 62.952 157.136 63.752 141.136 65.864C140.176 65.992 139.376 65.8 138.736 65.288C138.096 64.776 137.712 64.168 137.584 63.464C137.456 62.696 137.584 61.96 137.968 61.256C138.416 60.552 139.088 60.104 139.984 59.912C144.464 58.952 150.672 58.184 158.608 57.608C166.608 57.032 173.84 56.872 180.304 57.128C181.776 57.192 182.768 57.768 183.28 58.856C183.856 59.944 183.856 61 183.28 62.024C182.704 63.048 181.776 63.528 180.496 63.464ZM217.467 27.464C218.107 27.464 219.675 27.4 222.171 27.272C224.667 27.08 226.171 26.984 226.683 26.984C227.899 26.92 228.795 27.336 229.371 28.232C230.011 29.128 230.107 30.088 229.659 31.112C229.275 32.072 228.411 32.648 227.067 32.84C223.355 33.288 219.963 33.512 216.891 33.512C216.379 35.496 216.347 37.128 216.795 38.408C217.307 39.688 218.523 40.232 220.443 40.04C221.851 39.912 224.731 39.496 229.083 38.792C230.747 38.536 231.995 38.824 232.827 39.656C233.723 40.424 233.947 41.352 233.499 42.44C233.051 43.528 232.027 44.328 230.427 44.84C224.859 46.568 219.899 47.048 215.547 46.28C214.331 46.088 213.179 45.48 212.091 44.456C211.067 43.432 210.427 42.28 210.171 41C209.915 39.592 209.979 36.488 210.363 31.688C210.747 26.824 211.131 23.496 211.515 21.704C210.043 21.704 208.987 21.224 208.347 20.264C207.771 19.24 207.739 18.216 208.251 17.192C208.827 16.104 209.787 15.464 211.131 15.272C213.307 14.952 216.347 14.76 220.251 14.696C224.155 14.568 227.003 14.664 228.795 14.984C230.203 15.24 231.131 15.816 231.579 16.712C232.027 17.608 231.963 18.504 231.387 19.4C230.875 20.232 230.075 20.712 228.987 20.84C226.939 21.16 223.291 21.416 218.043 21.608C217.979 22.056 217.851 23.112 217.659 24.776C217.531 26.44 217.467 27.336 217.467 27.464ZM240.027 63.464C229.787 62.952 216.667 63.752 200.667 65.864C199.707 65.992 198.907 65.8 198.267 65.288C197.627 64.776 197.243 64.168 197.115 63.464C196.987 62.696 197.115 61.96 197.499 61.256C197.947 60.552 198.619 60.104 199.515 59.912C203.995 58.952 210.203 58.184 218.139 57.608C226.139 57.032 233.371 56.872 239.835 57.128C241.307 57.192 242.299 57.768 242.811 58.856C243.387 59.944 243.387 61 242.811 62.024C242.235 63.048 241.307 63.528 240.027 63.464ZM274.406 53.672C274.79 51.496 274.982 48.872 274.982 45.8C272.742 45.416 270.406 46.088 267.974 47.816C265.606 49.48 264.678 51.304 265.19 53.288C265.638 54.952 267.11 55.784 269.606 55.784C272.102 55.72 273.702 55.016 274.406 53.672ZM326.534 42.44C328.006 42.76 328.934 43.528 329.318 44.744C329.766 45.896 329.606 46.984 328.838 48.008C328.07 48.968 326.982 49.32 325.574 49.064C321.094 48.296 315.814 48.2 309.734 48.776C309.478 51.976 309.414 55.528 309.542 59.432C309.542 60.712 308.998 61.64 307.91 62.216C306.822 62.792 305.67 62.824 304.454 62.312C303.302 61.8 302.662 60.808 302.534 59.336C302.15 55.752 302.182 50.824 302.63 44.552C303.078 38.28 303.814 33.096 304.838 29C305.158 27.656 305.926 26.792 307.142 26.408C308.358 25.96 309.446 26.12 310.406 26.888C311.366 27.592 311.75 28.68 311.558 30.152C310.662 36.744 310.182 40.552 310.118 41.576C317.03 41.384 322.502 41.672 326.534 42.44ZM262.982 58.088C262.662 59.752 261.574 60.552 259.718 60.488C257.926 60.36 256.934 59.4 256.742 57.608C256.486 54.536 256.518 50.44 256.838 45.32C257.158 40.136 257.606 36.36 258.182 33.992C258.566 32.52 259.27 31.592 260.294 31.208C261.318 30.76 262.214 30.92 262.982 31.688C263.814 32.456 264.134 33.576 263.942 35.048C263.622 37.288 263.334 40.52 263.078 44.744C264.742 43.144 266.694 41.896 268.934 41C271.238 40.104 273.318 39.752 275.174 39.944C275.302 36.744 275.302 34.248 275.174 32.456C275.11 30.856 275.558 29.704 276.518 29C277.478 28.232 278.47 28.136 279.494 28.712C280.582 29.288 281.254 30.408 281.51 32.072C281.894 34.888 282.022 38.632 281.894 43.304C281.766 47.912 281.446 51.752 280.934 54.824C280.678 56.424 279.91 57.8 278.63 58.952C277.35 60.104 275.814 60.68 274.022 60.68C269.158 60.68 265.478 59.816 262.982 58.088ZM354.018 56.456C350.562 54.024 347.81 52.488 345.762 51.848C344.93 51.592 344.386 50.984 344.13 50.024C343.938 49.064 344.13 48.168 344.706 47.336C345.346 46.504 346.306 46.12 347.586 46.184C349.122 46.248 350.818 46.696 352.674 47.528C354.53 48.36 356.098 49.352 357.378 50.504C358.21 51.464 358.562 52.52 358.434 53.672C358.37 54.824 357.858 55.752 356.898 56.456C355.938 57.096 354.978 57.096 354.018 56.456ZM347.202 35.048C343.234 42.6 340.322 50.92 338.466 60.008C338.274 61.032 337.762 61.768 336.93 62.216C336.162 62.6 335.33 62.728 334.434 62.6C333.602 62.408 332.898 61.896 332.322 61.064C331.746 60.232 331.522 59.208 331.65 57.992C332.034 54.856 333.282 50.44 335.394 44.744C337.57 38.984 339.554 34.76 341.346 32.072C342.498 30.408 344.002 30.056 345.858 31.016C347.714 31.912 348.162 33.256 347.202 35.048ZM392.034 29.672C390.754 45.032 390.146 54.76 390.21 58.856C390.21 60.328 389.602 61.416 388.386 62.12C387.234 62.824 386.05 62.888 384.834 62.312C383.618 61.736 383.01 60.584 383.01 58.856C383.01 56.04 383.202 51.752 383.586 45.992C378.914 45.992 373.474 46.44 367.266 47.336C365.986 47.528 364.93 47.24 364.098 46.472C363.33 45.704 363.074 44.808 363.33 43.784C363.65 42.76 364.546 42.024 366.018 41.576C368.002 41 374.018 40.296 384.066 39.464L384.546 35.048C384.93 32.104 385.25 30.12 385.506 29.096C385.826 27.624 386.53 26.696 387.618 26.312C388.77 25.928 389.794 26.088 390.69 26.792C391.65 27.432 392.098 28.392 392.034 29.672ZM426.757 46.76C425.605 46.632 424.773 46.28 424.261 45.704C423.109 44.296 422.085 42.248 421.189 39.56C420.357 36.808 420.261 34.824 420.901 33.608C421.605 32.2 423.109 30.792 425.413 29.384C427.717 27.912 428.997 27.08 429.253 26.888C429.829 26.312 430.213 25.704 430.405 25.064C430.661 24.36 430.597 23.688 430.213 23.048C429.829 22.344 429.061 21.832 427.909 21.512C424.133 20.552 421.797 19.88 420.901 19.496C418.917 18.728 418.117 17.48 418.501 15.752C418.949 13.96 420.197 13.128 422.245 13.256C424.421 13.384 426.917 14.024 429.733 15.176C432.549 16.264 434.917 17.448 436.837 18.728C437.861 19.432 438.373 20.936 438.373 23.24C438.437 25.48 437.957 27.208 436.933 28.424C436.613 28.744 435.109 29.64 432.421 31.112C429.733 32.584 428.229 33.96 427.909 35.24C427.653 36.264 427.749 37.352 428.197 38.504C428.709 39.592 429.509 40.072 430.597 39.944C431.685 39.816 433.605 39.496 436.357 38.984C439.173 38.472 440.677 38.216 440.869 38.216C441.701 38.088 442.405 38.28 442.981 38.792C443.621 39.304 444.005 39.944 444.133 40.712C444.261 41.416 444.133 42.152 443.749 42.92C443.365 43.624 442.757 44.072 441.925 44.264C438.277 45.288 435.205 46.024 432.709 46.472C432.965 46.792 433.093 47.336 433.093 48.104C433.029 51.048 432.901 54.696 432.709 59.048C439.557 59.048 445.829 59.464 451.525 60.296C452.997 60.488 453.925 61.128 454.309 62.216C454.757 63.304 454.597 64.328 453.829 65.288C453.061 66.184 452.005 66.568 450.661 66.44C435.685 64.904 421.573 65.288 408.325 67.592C407.365 67.72 406.533 67.528 405.829 67.016C405.189 66.44 404.773 65.768 404.581 65C404.453 64.168 404.645 63.368 405.157 62.6C405.669 61.832 406.501 61.352 407.653 61.16C408.165 61.096 414.277 60.52 425.989 59.432C425.989 54.184 426.149 50.312 426.469 47.816C426.469 47.432 426.565 47.08 426.757 46.76ZM490.129 39.656C489.681 41.128 488.369 42.056 486.193 42.44C484.081 42.824 481.937 42.6 479.761 41.768C477.649 40.872 476.337 39.592 475.825 37.928C475.377 36.328 475.921 34.504 477.457 32.456C478.993 30.408 480.881 29.224 483.121 28.904C484.721 28.648 486.513 29.704 488.497 32.072C490.481 34.44 491.025 36.968 490.129 39.656ZM521.041 63.368C520.721 64.904 519.953 65.896 518.737 66.344C517.585 66.728 516.529 66.536 515.569 65.768C514.609 64.936 514.225 63.848 514.417 62.504C514.993 58.984 515.505 53.864 515.953 47.144C516.401 40.424 516.625 34.536 516.625 29.48C516.625 28.072 517.201 27.08 518.353 26.504C519.505 25.928 520.657 25.928 521.809 26.504C522.961 27.08 523.537 28.104 523.537 29.576C523.665 33.928 523.441 39.816 522.865 47.24C522.289 54.6 521.681 59.976 521.041 63.368ZM502.033 57.416C503.505 57.416 504.497 57.96 505.009 59.048C505.521 60.072 505.425 61.096 504.721 62.12C504.081 63.144 503.089 63.624 501.745 63.56C490.929 63.176 478.673 63.88 464.977 65.672C463.697 65.8 462.673 65.384 461.905 64.424C461.137 63.464 460.945 62.408 461.329 61.256C461.777 60.104 462.769 59.432 464.305 59.24C476.401 57.64 488.977 57.032 502.033 57.416ZM581.713 45.32C581.521 47.112 580.433 48.616 578.449 49.832C576.529 51.048 574.481 51.656 572.305 51.656C570.129 51.592 568.689 50.856 567.985 49.448C566.705 46.952 566.769 44.392 568.177 41.768C569.585 39.144 571.185 37.768 572.977 37.64C575.153 37.512 577.169 38.344 579.025 40.136C580.945 41.928 581.841 43.656 581.713 45.32ZM594.769 55.496C593.681 55.624 592.817 55.24 592.177 54.344C591.601 53.384 591.473 52.328 591.793 51.176C592.113 50.024 592.945 49.32 594.289 49.064C596.145 48.68 598.993 48.424 602.833 48.296C606.673 48.104 609.457 48.072 611.185 48.2C611.249 47.496 611.345 46.408 611.473 44.936C611.601 43.4 611.665 42.472 611.665 42.152C605.329 41.64 599.953 41.64 595.537 42.152C594.193 42.28 593.105 41.864 592.273 40.904C591.505 39.944 591.313 38.92 591.697 37.832C592.145 36.68 593.169 35.976 594.769 35.72C596.049 35.528 598.737 35.4 602.833 35.336C606.993 35.208 610.129 35.24 612.241 35.432C612.497 32.744 612.785 30.632 613.105 29.096C613.425 27.624 614.129 26.696 615.217 26.312C616.369 25.864 617.393 25.992 618.289 26.696C619.249 27.4 619.697 28.392 619.633 29.672C618.353 45.032 617.745 54.76 617.809 58.856C617.809 60.328 617.201 61.416 615.985 62.12C614.769 62.824 613.553 62.888 612.337 62.312C611.185 61.736 610.609 60.584 610.609 58.856C610.609 56.872 610.641 55.528 610.705 54.824C605.969 54.376 600.657 54.6 594.769 55.496ZM689.422 73.832C689.422 76.008 688.334 77.832 686.158 79.304C684.046 80.84 682.126 81.288 680.398 80.648C677.902 79.752 676.174 78.12 675.214 75.752C674.254 73.32 673.998 71.176 674.446 69.32C674.574 68.616 675.694 67.976 677.806 67.4C679.982 66.76 681.742 66.504 683.086 66.632C684.622 66.824 686.062 67.56 687.406 68.84C688.75 70.12 689.422 71.784 689.422 73.832ZM691.438 29.096C691.758 22.76 692.142 18.376 692.59 15.944C692.846 14.408 693.55 13.416 694.702 12.968C695.918 12.456 697.006 12.584 697.966 13.352C698.99 14.056 699.438 15.112 699.31 16.52C698.35 26.12 698.126 36.072 698.638 46.376C698.702 47.784 698.19 48.84 697.102 49.544C696.014 50.248 694.862 50.408 693.646 50.024C692.494 49.576 691.854 48.616 691.726 47.144C691.406 44.648 691.246 40.968 691.246 36.104C687.726 35.976 684.942 36.04 682.894 36.296C682.638 39.496 682.574 43.048 682.702 46.952C682.702 48.232 682.158 49.16 681.07 49.736C679.982 50.312 678.83 50.344 677.614 49.832C676.462 49.32 675.822 48.328 675.694 46.856C675.31 43.272 675.342 38.344 675.79 32.072C676.238 25.8 676.974 20.616 677.998 16.52C678.318 15.176 679.086 14.312 680.302 13.928C681.518 13.48 682.606 13.64 683.566 14.408C684.526 15.112 684.91 16.2 684.718 17.672C683.822 24.264 683.342 28.072 683.278 29.096C685.07 28.968 687.79 28.968 691.438 29.096ZM645.646 20.552C645.838 21.768 645.454 22.728 644.494 23.432C643.534 24.136 642.414 24.328 641.134 24.008C639.918 23.624 639.118 22.728 638.734 21.32C638.286 20.104 638.158 18.184 638.35 15.56C638.606 12.872 639.15 10.536 639.982 8.55199C640.43 7.528 641.198 6.888 642.286 6.632C643.374 6.376 644.302 6.632 645.07 7.4C645.838 8.104 646.062 9.16 645.742 10.568C645.038 13.64 645.006 16.968 645.646 20.552ZM653.806 46.952C653.23 48.808 652.046 50.216 650.254 51.176C648.526 52.072 646.606 52.296 644.494 51.848C641.038 51.08 639.502 47.976 639.886 42.536C639.886 42.152 639.95 41.512 640.078 40.616C640.206 39.656 640.27 38.952 640.27 38.504C640.27 38.056 640.206 37.512 640.078 36.872C640.014 36.168 639.822 35.56 639.502 35.048C638.734 33.896 637.23 33.32 634.99 33.32C633.902 33.32 633.006 33.032 632.302 32.456C631.662 31.88 631.31 31.208 631.246 30.44C631.182 29.672 631.406 28.968 631.918 28.328C632.43 27.624 633.166 27.176 634.126 26.984C638.734 26.216 643.246 26.248 647.662 27.08C648.878 27.336 649.646 27.944 649.966 28.904C650.35 29.8 650.286 30.696 649.774 31.592C649.262 32.424 648.526 32.84 647.566 32.84C646.862 32.904 646.254 33.192 645.742 33.704C645.294 34.216 645.07 34.76 645.07 35.336C645.07 36.744 646.766 37.928 650.158 38.888C651.822 39.336 652.974 40.392 653.614 42.056C654.254 43.656 654.318 45.288 653.806 46.952Z" fill="white"/>
</svg>
